<?xml version="1.0" encoding="UTF-8" standalone="no"?>
<!DOCTYPE svg PUBLIC "-//W3C//DTD SVG 1.1//EN"
 "http://www.w3.org/Graphics/SVG/1.1/DTD/svg11.dtd">
<!-- Generated by graphviz version 10.0.1 (20240210.2158)
 -->
<!-- Title: G Pages: 1 -->
<svg width="2381pt" height="980pt"
 viewBox="0.00 0.00 2381.09 980.00" xmlns="http://www.w3.org/2000/svg" xmlns:xlink="http://www.w3.org/1999/xlink">
<g id="graph0" class="graph" transform="scale(1 1) rotate(0) translate(4 976)">
<title>G</title>
<polygon fill="white" stroke="none" points="-4,4 -4,-976 2377.09,-976 2377.09,4 -4,4"/>
<!-- HC2_2_0_0 -->
<g id="node1" class="node">
<title>HC2_2_0_0</title>
<ellipse fill="none" stroke="black" cx="301.04" cy="-954" rx="56.55" ry="18"/>
<text text-anchor="middle" x="301.04" y="-948.58" font-family="Times New Roman,serif" font-size="14.00">HC2_2_0_0</text>
</g>
<!-- H3C2DFR_3_0_0 -->
<g id="node2" class="node">
<title>H3C2DFR_3_0_0</title>
<ellipse fill="none" stroke="black" cx="408.04" cy="-882" rx="79.51" ry="18"/>
<text text-anchor="middle" x="408.04" y="-876.58" font-family="Times New Roman,serif" font-size="14.00">H3C2DFR_3_0_0</text>
</g>
<!-- HC2_2_0_0&#45;&gt;H3C2DFR_3_0_0 -->
<g id="edge1" class="edge">
<title>HC2_2_0_0&#45;&gt;H3C2DFR_3_0_0</title>
<path fill="none" stroke="black" d="M325.06,-937.29C339.34,-927.94 357.71,-915.93 373.53,-905.58"/>
<polygon fill="black" stroke="black" points="375.28,-908.62 381.73,-900.22 371.44,-902.76 375.28,-908.62"/>
</g>
<!-- HC2_2_4_0 -->
<g id="node3" class="node">
<title>HC2_2_4_0</title>
<ellipse fill="none" stroke="black" cx="578.04" cy="-738" rx="56.55" ry="18"/>
<text text-anchor="middle" x="578.04" y="-732.58" font-family="Times New Roman,serif" font-size="14.00">HC2_2_4_0</text>
</g>
<!-- H3C2DFR_3_33_0 -->
<g id="node4" class="node">
<title>H3C2DFR_3_33_0</title>
<ellipse fill="none" stroke="black" cx="722.04" cy="-666" rx="84" ry="18"/>
<text text-anchor="middle" x="722.04" y="-660.58" font-family="Times New Roman,serif" font-size="14.00">H3C2DFR_3_33_0</text>
</g>
<!-- HC2_2_4_0&#45;&gt;H3C2DFR_3_33_0 -->
<g id="edge2" class="edge">
<title>HC2_2_4_0&#45;&gt;H3C2DFR_3_33_0</title>
<path fill="none" stroke="black" d="M608.23,-722.33C628.76,-712.35 656.22,-699 679.03,-687.91"/>
<polygon fill="black" stroke="black" points="680.31,-691.18 687.78,-683.66 677.25,-684.88 680.31,-691.18"/>
</g>
<!-- H13C6D5F5R5_9_19_0 -->
<g id="node20" class="node">
<title>H13C6D5F5R5_9_19_0</title>
<ellipse fill="none" stroke="black" cx="824.04" cy="-594" rx="101.96" ry="18"/>
<text text-anchor="middle" x="824.04" y="-588.58" font-family="Times New Roman,serif" font-size="14.00">H13C6D5F5R5_9_19_0</text>
</g>
<!-- H3C2DFR_3_33_0&#45;&gt;H13C6D5F5R5_9_19_0 -->
<g id="edge15" class="edge">
<title>H3C2DFR_3_33_0&#45;&gt;H13C6D5F5R5_9_19_0</title>
<path fill="none" stroke="black" d="M746.22,-648.41C759.46,-639.32 776.07,-627.92 790.55,-617.99"/>
<polygon fill="black" stroke="black" points="792.18,-621.11 798.44,-612.57 788.22,-615.34 792.18,-621.11"/>
</g>
<!-- H2DFR_2_28_0 -->
<g id="node5" class="node">
<title>H2DFR_2_28_0</title>
<ellipse fill="none" stroke="black" cx="1796.04" cy="-450" rx="73.02" ry="18"/>
<text text-anchor="middle" x="1796.04" y="-444.57" font-family="Times New Roman,serif" font-size="14.00">H2DFR_2_28_0</text>
</g>
<!-- H5C2D2F2R2_3_25_0 -->
<g id="node6" class="node">
<title>H5C2D2F2R2_3_25_0</title>
<ellipse fill="none" stroke="black" cx="1726.04" cy="-378" rx="97.47" ry="18"/>
<text text-anchor="middle" x="1726.04" y="-372.57" font-family="Times New Roman,serif" font-size="14.00">H5C2D2F2R2_3_25_0</text>
</g>
<!-- H2DFR_2_28_0&#45;&gt;H5C2D2F2R2_3_25_0 -->
<g id="edge3" class="edge">
<title>H2DFR_2_28_0&#45;&gt;H5C2D2F2R2_3_25_0</title>
<path fill="none" stroke="black" d="M1779.1,-432.05C1770.59,-423.54 1760.11,-413.07 1750.73,-403.68"/>
<polygon fill="black" stroke="black" points="1753.45,-401.46 1743.9,-396.86 1748.5,-406.41 1753.45,-401.46"/>
</g>
<!-- H10C4D4F4R4_5_19_0 -->
<g id="node19" class="node">
<title>H10C4D4F4R4_5_19_0</title>
<ellipse fill="none" stroke="black" cx="1831.04" cy="-306" rx="101.96" ry="18"/>
<text text-anchor="middle" x="1831.04" y="-300.57" font-family="Times New Roman,serif" font-size="14.00">H10C4D4F4R4_5_19_0</text>
</g>
<!-- H5C2D2F2R2_3_25_0&#45;&gt;H10C4D4F4R4_5_19_0 -->
<g id="edge13" class="edge">
<title>H5C2D2F2R2_3_25_0&#45;&gt;H10C4D4F4R4_5_19_0</title>
<path fill="none" stroke="black" d="M1751.19,-360.23C1764.73,-351.21 1781.63,-339.94 1796.4,-330.1"/>
<polygon fill="black" stroke="black" points="1798.1,-333.17 1804.48,-324.71 1794.21,-327.35 1798.1,-333.17"/>
</g>
<!-- H2DFR_2_32_0 -->
<g id="node7" class="node">
<title>H2DFR_2_32_0</title>
<ellipse fill="none" stroke="black" cx="449.04" cy="-954" rx="73.02" ry="18"/>
<text text-anchor="middle" x="449.04" y="-948.58" font-family="Times New Roman,serif" font-size="14.00">H2DFR_2_32_0</text>
</g>
<!-- H2DFR_2_32_0&#45;&gt;H3C2DFR_3_0_0 -->
<g id="edge4" class="edge">
<title>H2DFR_2_32_0&#45;&gt;H3C2DFR_3_0_0</title>
<path fill="none" stroke="black" d="M438.91,-935.7C434.34,-927.9 428.84,-918.51 423.76,-909.83"/>
<polygon fill="black" stroke="black" points="426.9,-908.27 418.83,-901.41 420.86,-911.81 426.9,-908.27"/>
</g>
<!-- H2DFR_2_37_0 -->
<g id="node8" class="node">
<title>H2DFR_2_37_0</title>
<ellipse fill="none" stroke="black" cx="2092.04" cy="-450" rx="73.02" ry="18"/>
<text text-anchor="middle" x="2092.04" y="-444.57" font-family="Times New Roman,serif" font-size="14.00">H2DFR_2_37_0</text>
</g>
<!-- H3C2DFR_3_1_0 -->
<g id="node9" class="node">
<title>H3C2DFR_3_1_0</title>
<ellipse fill="none" stroke="black" cx="1936.04" cy="-378" rx="79.51" ry="18"/>
<text text-anchor="middle" x="1936.04" y="-372.57" font-family="Times New Roman,serif" font-size="14.00">H3C2DFR_3_1_0</text>
</g>
<!-- H2DFR_2_37_0&#45;&gt;H3C2DFR_3_1_0 -->
<g id="edge5" class="edge">
<title>H2DFR_2_37_0&#45;&gt;H3C2DFR_3_1_0</title>
<path fill="none" stroke="black" d="M2057.81,-433.64C2035.31,-423.54 2005.62,-410.22 1981.2,-399.26"/>
<polygon fill="black" stroke="black" points="1982.68,-396.09 1972.12,-395.19 1979.81,-402.47 1982.68,-396.09"/>
</g>
<!-- H3C2DFR_3_1_0&#45;&gt;H10C4D4F4R4_5_19_0 -->
<g id="edge14" class="edge">
<title>H3C2DFR_3_1_0&#45;&gt;H10C4D4F4R4_5_19_0</title>
<path fill="none" stroke="black" d="M1911.43,-360.59C1897.8,-351.51 1880.65,-340.07 1865.69,-330.1"/>
<polygon fill="black" stroke="black" points="1867.76,-327.27 1857.5,-324.63 1863.88,-333.09 1867.76,-327.27"/>
</g>
<!-- HC2_2_13_0 -->
<g id="node10" class="node">
<title>HC2_2_13_0</title>
<ellipse fill="none" stroke="black" cx="1480.04" cy="-450" rx="61.04" ry="18"/>
<text text-anchor="middle" x="1480.04" y="-444.57" font-family="Times New Roman,serif" font-size="14.00">HC2_2_13_0</text>
</g>
<!-- HC2_2_13_0&#45;&gt;H5C2D2F2R2_3_25_0 -->
<g id="edge6" class="edge">
<title>HC2_2_13_0&#45;&gt;H5C2D2F2R2_3_25_0</title>
<path fill="none" stroke="black" d="M1522.89,-436.81C1561.85,-425.72 1619.81,-409.23 1663.87,-396.69"/>
<polygon fill="black" stroke="black" points="1664.63,-400.11 1673.29,-394.01 1662.71,-393.38 1664.63,-400.11"/>
</g>
<!-- HC2_2_18_0 -->
<g id="node11" class="node">
<title>HC2_2_18_0</title>
<ellipse fill="none" stroke="black" cx="616.04" cy="-954" rx="61.04" ry="18"/>
<text text-anchor="middle" x="616.04" y="-948.58" font-family="Times New Roman,serif" font-size="14.00">HC2_2_18_0</text>
</g>
<!-- H3C2DFR_3_17_0 -->
<g id="node12" class="node">
<title>H3C2DFR_3_17_0</title>
<ellipse fill="none" stroke="black" cx="656.04" cy="-882" rx="84" ry="18"/>
<text text-anchor="middle" x="656.04" y="-876.58" font-family="Times New Roman,serif" font-size="14.00">H3C2DFR_3_17_0</text>
</g>
<!-- HC2_2_18_0&#45;&gt;H3C2DFR_3_17_0 -->
<g id="edge7" class="edge">
<title>HC2_2_18_0&#45;&gt;H3C2DFR_3_17_0</title>
<path fill="none" stroke="black" d="M625.73,-936.05C630.18,-928.26 635.57,-918.82 640.57,-910.08"/>
<polygon fill="black" stroke="black" points="643.5,-912.01 645.42,-901.59 637.42,-908.54 643.5,-912.01"/>
</g>
<!-- H5C2D2F2R2_4_26_0 -->
<g id="node24" class="node">
<title>H5C2D2F2R2_4_26_0</title>
<ellipse fill="none" stroke="black" cx="743.04" cy="-810" rx="97.47" ry="18"/>
<text text-anchor="middle" x="743.04" y="-804.58" font-family="Times New Roman,serif" font-size="14.00">H5C2D2F2R2_4_26_0</text>
</g>
<!-- H3C2DFR_3_17_0&#45;&gt;H5C2D2F2R2_4_26_0 -->
<g id="edge19" class="edge">
<title>H3C2DFR_3_17_0&#45;&gt;H5C2D2F2R2_4_26_0</title>
<path fill="none" stroke="black" d="M676.66,-864.41C687.55,-855.65 701.12,-844.73 713.14,-835.06"/>
<polygon fill="black" stroke="black" points="715.19,-837.9 720.79,-828.91 710.81,-832.45 715.19,-837.9"/>
</g>
<!-- H2DFR_2_33_0 -->
<g id="node13" class="node">
<title>H2DFR_2_33_0</title>
<ellipse fill="none" stroke="black" cx="1632.04" cy="-450" rx="73.02" ry="18"/>
<text text-anchor="middle" x="1632.04" y="-444.57" font-family="Times New Roman,serif" font-size="14.00">H2DFR_2_33_0</text>
</g>
<!-- H2DFR_2_33_0&#45;&gt;H5C2D2F2R2_3_25_0 -->
<g id="edge8" class="edge">
<title>H2DFR_2_33_0&#45;&gt;H5C2D2F2R2_3_25_0</title>
<path fill="none" stroke="black" d="M1654.32,-432.41C1666.2,-423.56 1681.03,-412.52 1694.12,-402.77"/>
<polygon fill="black" stroke="black" points="1696.13,-405.64 1702.06,-396.86 1691.95,-400.03 1696.13,-405.64"/>
</g>
<!-- HC2_2_1_0 -->
<g id="node14" class="node">
<title>HC2_2_1_0</title>
<ellipse fill="none" stroke="black" cx="1944.04" cy="-450" rx="56.55" ry="18"/>
<text text-anchor="middle" x="1944.04" y="-444.57" font-family="Times New Roman,serif" font-size="14.00">HC2_2_1_0</text>
</g>
<!-- HC2_2_1_0&#45;&gt;H3C2DFR_3_1_0 -->
<g id="edge9" class="edge">
<title>HC2_2_1_0&#45;&gt;H3C2DFR_3_1_0</title>
<path fill="none" stroke="black" d="M1942.07,-431.7C1941.23,-424.41 1940.24,-415.73 1939.31,-407.54"/>
<polygon fill="black" stroke="black" points="1942.78,-407.15 1938.17,-397.61 1935.83,-407.94 1942.78,-407.15"/>
</g>
<!-- H2DFR_2_20_0 -->
<g id="node15" class="node">
<title>H2DFR_2_20_0</title>
<ellipse fill="none" stroke="black" cx="768.04" cy="-954" rx="73.02" ry="18"/>
<text text-anchor="middle" x="768.04" y="-948.58" font-family="Times New Roman,serif" font-size="14.00">H2DFR_2_20_0</text>
</g>
<!-- H2DFR_2_20_0&#45;&gt;H3C2DFR_3_17_0 -->
<g id="edge10" class="edge">
<title>H2DFR_2_20_0&#45;&gt;H3C2DFR_3_17_0</title>
<path fill="none" stroke="black" d="M742.07,-936.76C727.19,-927.47 708.3,-915.66 692.01,-905.48"/>
<polygon fill="black" stroke="black" points="693.89,-902.52 683.55,-900.19 690.18,-908.46 693.89,-902.52"/>
</g>
<!-- H2DFR_2_39_0 -->
<g id="node16" class="node">
<title>H2DFR_2_39_0</title>
<ellipse fill="none" stroke="black" cx="726.04" cy="-738" rx="73.02" ry="18"/>
<text text-anchor="middle" x="726.04" y="-732.58" font-family="Times New Roman,serif" font-size="14.00">H2DFR_2_39_0</text>
</g>
<!-- H2DFR_2_39_0&#45;&gt;H3C2DFR_3_33_0 -->
<g id="edge11" class="edge">
<title>H2DFR_2_39_0&#45;&gt;H3C2DFR_3_33_0</title>
<path fill="none" stroke="black" d="M725.06,-719.7C724.64,-712.41 724.14,-703.73 723.67,-695.54"/>
<polygon fill="black" stroke="black" points="727.17,-695.4 723.11,-685.62 720.18,-695.8 727.17,-695.4"/>
</g>
<!-- HC2_3_11_0 -->
<g id="node17" class="node">
<title>HC2_3_11_0</title>
<ellipse fill="none" stroke="black" cx="61.04" cy="-594" rx="61.04" ry="18"/>
<text text-anchor="middle" x="61.04" y="-588.58" font-family="Times New Roman,serif" font-size="14.00">HC2_3_11_0</text>
</g>
<!-- H6C4D2F2R2_4_7_0 -->
<g id="node18" class="node">
<title>H6C4D2F2R2_4_7_0</title>
<ellipse fill="none" stroke="black" cx="287.04" cy="-522" rx="92.98" ry="18"/>
<text text-anchor="middle" x="287.04" y="-516.58" font-family="Times New Roman,serif" font-size="14.00">H6C4D2F2R2_4_7_0</text>
</g>
<!-- HC2_3_11_0&#45;&gt;H6C4D2F2R2_4_7_0 -->
<g id="edge12" class="edge">
<title>HC2_3_11_0&#45;&gt;H6C4D2F2R2_4_7_0</title>
<path fill="none" stroke="black" d="M101.97,-580.32C137.32,-569.38 188.81,-553.43 228.51,-541.13"/>
<polygon fill="black" stroke="black" points="229.41,-544.51 237.93,-538.21 227.34,-537.83 229.41,-544.51"/>
</g>
<!-- H8C4D3F3R3_6_5_0 -->
<g id="node26" class="node">
<title>H8C4D3F3R3_6_5_0</title>
<ellipse fill="none" stroke="black" cx="441.04" cy="-450" rx="92.98" ry="18"/>
<text text-anchor="middle" x="441.04" y="-444.57" font-family="Times New Roman,serif" font-size="14.00">H8C4D3F3R3_6_5_0</text>
</g>
<!-- H6C4D2F2R2_4_7_0&#45;&gt;H8C4D3F3R3_6_5_0 -->
<g id="edge21" class="edge">
<title>H6C4D2F2R2_4_7_0&#45;&gt;H8C4D3F3R3_6_5_0</title>
<path fill="none" stroke="black" d="M322.37,-504.94C344.01,-495.1 371.94,-482.41 395.26,-471.81"/>
<polygon fill="black" stroke="black" points="396.58,-475.06 404.23,-467.73 393.68,-468.68 396.58,-475.06"/>
</g>
<!-- H11C6D4F4R4_9_7_0 -->
<g id="node35" class="node">
<title>H11C6D4F4R4_9_7_0</title>
<ellipse fill="none" stroke="black" cx="1831.04" cy="-234" rx="97.47" ry="18"/>
<text text-anchor="middle" x="1831.04" y="-228.57" font-family="Times New Roman,serif" font-size="14.00">H11C6D4F4R4_9_7_0</text>
</g>
<!-- H10C4D4F4R4_5_19_0&#45;&gt;H11C6D4F4R4_9_7_0 -->
<g id="edge29" class="edge">
<title>H10C4D4F4R4_5_19_0&#45;&gt;H11C6D4F4R4_9_7_0</title>
<path fill="none" stroke="black" d="M1831.04,-287.7C1831.04,-280.41 1831.04,-271.73 1831.04,-263.54"/>
<polygon fill="black" stroke="black" points="1834.54,-263.62 1831.04,-253.62 1827.54,-263.62 1834.54,-263.62"/>
</g>
<!-- H14C8D5F5R5_11_17_0 -->
<g id="node47" class="node">
<title>H14C8D5F5R5_11_17_0</title>
<ellipse fill="none" stroke="black" cx="883.04" cy="-522" rx="106.45" ry="18"/>
<text text-anchor="middle" x="883.04" y="-516.58" font-family="Times New Roman,serif" font-size="14.00">H14C8D5F5R5_11_17_0</text>
</g>
<!-- H13C6D5F5R5_9_19_0&#45;&gt;H14C8D5F5R5_11_17_0 -->
<g id="edge41" class="edge">
<title>H13C6D5F5R5_9_19_0&#45;&gt;H14C8D5F5R5_11_17_0</title>
<path fill="none" stroke="black" d="M838.63,-575.7C845.49,-567.56 853.81,-557.69 861.38,-548.7"/>
<polygon fill="black" stroke="black" points="863.88,-551.16 867.65,-541.26 858.53,-546.65 863.88,-551.16"/>
</g>
<!-- H2DFR_3_31_0 -->
<g id="node21" class="node">
<title>H2DFR_3_31_0</title>
<ellipse fill="none" stroke="black" cx="213.04" cy="-594" rx="73.02" ry="18"/>
<text text-anchor="middle" x="213.04" y="-588.58" font-family="Times New Roman,serif" font-size="14.00">H2DFR_3_31_0</text>
</g>
<!-- H2DFR_3_31_0&#45;&gt;H6C4D2F2R2_4_7_0 -->
<g id="edge16" class="edge">
<title>H2DFR_3_31_0&#45;&gt;H6C4D2F2R2_4_7_0</title>
<path fill="none" stroke="black" d="M230.58,-576.41C239.66,-567.82 250.93,-557.16 261.01,-547.63"/>
<polygon fill="black" stroke="black" points="263.16,-550.41 268.02,-541 258.35,-545.33 263.16,-550.41"/>
</g>
<!-- HC2_3_7_0 -->
<g id="node22" class="node">
<title>HC2_3_7_0</title>
<ellipse fill="none" stroke="black" cx="361.04" cy="-594" rx="56.55" ry="18"/>
<text text-anchor="middle" x="361.04" y="-588.58" font-family="Times New Roman,serif" font-size="14.00">HC2_3_7_0</text>
</g>
<!-- HC2_3_7_0&#45;&gt;H6C4D2F2R2_4_7_0 -->
<g id="edge17" class="edge">
<title>HC2_3_7_0&#45;&gt;H6C4D2F2R2_4_7_0</title>
<path fill="none" stroke="black" d="M343.51,-576.41C334.42,-567.82 323.16,-557.16 313.08,-547.63"/>
<polygon fill="black" stroke="black" points="315.74,-545.33 306.07,-541 310.93,-550.41 315.74,-545.33"/>
</g>
<!-- H2DFR_3_26_0 -->
<g id="node23" class="node">
<title>H2DFR_3_26_0</title>
<ellipse fill="none" stroke="black" cx="509.04" cy="-594" rx="73.02" ry="18"/>
<text text-anchor="middle" x="509.04" y="-588.58" font-family="Times New Roman,serif" font-size="14.00">H2DFR_3_26_0</text>
</g>
<!-- H2DFR_3_26_0&#45;&gt;H6C4D2F2R2_4_7_0 -->
<g id="edge18" class="edge">
<title>H2DFR_3_26_0&#45;&gt;H6C4D2F2R2_4_7_0</title>
<path fill="none" stroke="black" d="M465.18,-579.17C430.8,-568.33 382.64,-553.14 345.06,-541.29"/>
<polygon fill="black" stroke="black" points="346.3,-538.01 335.71,-538.35 344.19,-544.69 346.3,-538.01"/>
</g>
<!-- H7C2D3F3R3_5_22_0 -->
<g id="node27" class="node">
<title>H7C2D3F3R3_5_22_0</title>
<ellipse fill="none" stroke="black" cx="922.04" cy="-738" rx="97.47" ry="18"/>
<text text-anchor="middle" x="922.04" y="-732.58" font-family="Times New Roman,serif" font-size="14.00">H7C2D3F3R3_5_22_0</text>
</g>
<!-- H5C2D2F2R2_4_26_0&#45;&gt;H7C2D3F3R3_5_22_0 -->
<g id="edge22" class="edge">
<title>H5C2D2F2R2_4_26_0&#45;&gt;H7C2D3F3R3_5_22_0</title>
<path fill="none" stroke="black" d="M783.21,-793.29C809.26,-783.1 843.42,-769.75 871.33,-758.83"/>
<polygon fill="black" stroke="black" points="872.25,-762.23 880.29,-755.33 869.7,-755.71 872.25,-762.23"/>
</g>
<!-- H2DFR_3_29_0 -->
<g id="node25" class="node">
<title>H2DFR_3_29_0</title>
<ellipse fill="none" stroke="black" cx="831.04" cy="-882" rx="73.02" ry="18"/>
<text text-anchor="middle" x="831.04" y="-876.58" font-family="Times New Roman,serif" font-size="14.00">H2DFR_3_29_0</text>
</g>
<!-- H2DFR_3_29_0&#45;&gt;H5C2D2F2R2_4_26_0 -->
<g id="edge20" class="edge">
<title>H2DFR_3_29_0&#45;&gt;H5C2D2F2R2_4_26_0</title>
<path fill="none" stroke="black" d="M810.19,-864.41C799.17,-855.65 785.45,-844.73 773.29,-835.06"/>
<polygon fill="black" stroke="black" points="775.55,-832.38 765.54,-828.9 771.19,-837.86 775.55,-832.38"/>
</g>
<!-- H9C6D3F3R3_11_2_0 -->
<g id="node36" class="node">
<title>H9C6D3F3R3_11_2_0</title>
<ellipse fill="none" stroke="black" cx="543.04" cy="-378" rx="97.47" ry="18"/>
<text text-anchor="middle" x="543.04" y="-372.57" font-family="Times New Roman,serif" font-size="14.00">H9C6D3F3R3_11_2_0</text>
</g>
<!-- H8C4D3F3R3_6_5_0&#45;&gt;H9C6D3F3R3_11_2_0 -->
<g id="edge31" class="edge">
<title>H8C4D3F3R3_6_5_0&#45;&gt;H9C6D3F3R3_11_2_0</title>
<path fill="none" stroke="black" d="M465.48,-432.23C478.5,-423.29 494.73,-412.15 508.98,-402.38"/>
<polygon fill="black" stroke="black" points="510.95,-405.27 517.21,-396.73 506.98,-399.5 510.95,-405.27"/>
</g>
<!-- H10C4D4F4R4_7_14_0 -->
<g id="node34" class="node">
<title>H10C4D4F4R4_7_14_0</title>
<ellipse fill="none" stroke="black" cx="926.04" cy="-666" rx="101.96" ry="18"/>
<text text-anchor="middle" x="926.04" y="-660.58" font-family="Times New Roman,serif" font-size="14.00">H10C4D4F4R4_7_14_0</text>
</g>
<!-- H7C2D3F3R3_5_22_0&#45;&gt;H10C4D4F4R4_7_14_0 -->
<g id="edge28" class="edge">
<title>H7C2D3F3R3_5_22_0&#45;&gt;H10C4D4F4R4_7_14_0</title>
<path fill="none" stroke="black" d="M923.03,-719.7C923.45,-712.41 923.95,-703.73 924.41,-695.54"/>
<polygon fill="black" stroke="black" points="927.9,-695.8 924.98,-685.62 920.92,-695.4 927.9,-695.8"/>
</g>
<!-- H2DFR_4_22_0 -->
<g id="node28" class="node">
<title>H2DFR_4_22_0</title>
<ellipse fill="none" stroke="black" cx="2107.04" cy="-378" rx="73.02" ry="18"/>
<text text-anchor="middle" x="2107.04" y="-372.57" font-family="Times New Roman,serif" font-size="14.00">H2DFR_4_22_0</text>
</g>
<!-- H2DFR_4_22_0&#45;&gt;H10C4D4F4R4_5_19_0 -->
<g id="edge23" class="edge">
<title>H2DFR_4_22_0&#45;&gt;H10C4D4F4R4_5_19_0</title>
<path fill="none" stroke="black" d="M2057.38,-364.4C2013.03,-353.16 1947.69,-336.58 1898.6,-324.13"/>
<polygon fill="black" stroke="black" points="1899.46,-320.74 1888.91,-321.68 1897.74,-327.53 1899.46,-320.74"/>
</g>
<!-- H2DFR_4_16_0 -->
<g id="node29" class="node">
<title>H2DFR_4_16_0</title>
<ellipse fill="none" stroke="black" cx="931.04" cy="-810" rx="73.02" ry="18"/>
<text text-anchor="middle" x="931.04" y="-804.58" font-family="Times New Roman,serif" font-size="14.00">H2DFR_4_16_0</text>
</g>
<!-- H2DFR_4_16_0&#45;&gt;H7C2D3F3R3_5_22_0 -->
<g id="edge24" class="edge">
<title>H2DFR_4_16_0&#45;&gt;H7C2D3F3R3_5_22_0</title>
<path fill="none" stroke="black" d="M928.82,-791.7C927.87,-784.32 926.74,-775.52 925.68,-767.25"/>
<polygon fill="black" stroke="black" points="929.18,-767.08 924.44,-757.61 922.24,-767.97 929.18,-767.08"/>
</g>
<!-- H2DFR_4_17_0 -->
<g id="node30" class="node">
<title>H2DFR_4_17_0</title>
<ellipse fill="none" stroke="black" cx="1112.04" cy="-810" rx="73.02" ry="18"/>
<text text-anchor="middle" x="1112.04" y="-804.58" font-family="Times New Roman,serif" font-size="14.00">H2DFR_4_17_0</text>
</g>
<!-- H3C2DFR_5_14_0 -->
<g id="node31" class="node">
<title>H3C2DFR_5_14_0</title>
<ellipse fill="none" stroke="black" cx="1121.04" cy="-738" rx="84" ry="18"/>
<text text-anchor="middle" x="1121.04" y="-732.58" font-family="Times New Roman,serif" font-size="14.00">H3C2DFR_5_14_0</text>
</g>
<!-- H2DFR_4_17_0&#45;&gt;H3C2DFR_5_14_0 -->
<g id="edge25" class="edge">
<title>H2DFR_4_17_0&#45;&gt;H3C2DFR_5_14_0</title>
<path fill="none" stroke="black" d="M1114.27,-791.7C1115.22,-784.32 1116.35,-775.52 1117.41,-767.25"/>
<polygon fill="black" stroke="black" points="1120.85,-767.97 1118.65,-757.61 1113.9,-767.08 1120.85,-767.97"/>
</g>
<!-- H3C2DFR_5_14_0&#45;&gt;H10C4D4F4R4_7_14_0 -->
<g id="edge30" class="edge">
<title>H3C2DFR_5_14_0&#45;&gt;H10C4D4F4R4_7_14_0</title>
<path fill="none" stroke="black" d="M1079.21,-721.98C1050.38,-711.63 1011.78,-697.78 980.55,-686.57"/>
<polygon fill="black" stroke="black" points="981.86,-683.32 971.26,-683.23 979.49,-689.9 981.86,-683.32"/>
</g>
<!-- HC2_4_5_0 -->
<g id="node32" class="node">
<title>HC2_4_5_0</title>
<ellipse fill="none" stroke="black" cx="1260.04" cy="-810" rx="56.55" ry="18"/>
<text text-anchor="middle" x="1260.04" y="-804.58" font-family="Times New Roman,serif" font-size="14.00">HC2_4_5_0</text>
</g>
<!-- HC2_4_5_0&#45;&gt;H3C2DFR_5_14_0 -->
<g id="edge26" class="edge">
<title>HC2_4_5_0&#45;&gt;H3C2DFR_5_14_0</title>
<path fill="none" stroke="black" d="M1230.9,-794.33C1211.25,-784.43 1185,-771.21 1163.09,-760.18"/>
<polygon fill="black" stroke="black" points="1164.91,-757.17 1154.41,-755.8 1161.76,-763.43 1164.91,-757.17"/>
</g>
<!-- H2DFR_5_21_0 -->
<g id="node33" class="node">
<title>H2DFR_5_21_0</title>
<ellipse fill="none" stroke="black" cx="471.04" cy="-522" rx="73.02" ry="18"/>
<text text-anchor="middle" x="471.04" y="-516.58" font-family="Times New Roman,serif" font-size="14.00">H2DFR_5_21_0</text>
</g>
<!-- H2DFR_5_21_0&#45;&gt;H8C4D3F3R3_6_5_0 -->
<g id="edge27" class="edge">
<title>H2DFR_5_21_0&#45;&gt;H8C4D3F3R3_6_5_0</title>
<path fill="none" stroke="black" d="M463.63,-503.7C460.39,-496.15 456.52,-487.12 452.91,-478.68"/>
<polygon fill="black" stroke="black" points="456.13,-477.31 448.97,-469.5 449.69,-480.07 456.13,-477.31"/>
</g>
<!-- H10C4D4F4R4_7_14_0&#45;&gt;H13C6D5F5R5_9_19_0 -->
<g id="edge34" class="edge">
<title>H10C4D4F4R4_7_14_0&#45;&gt;H13C6D5F5R5_9_19_0</title>
<path fill="none" stroke="black" d="M901.35,-648.05C888.32,-639.11 872.14,-628.01 857.95,-618.27"/>
<polygon fill="black" stroke="black" points="859.98,-615.42 849.76,-612.65 856.02,-621.19 859.98,-615.42"/>
</g>
<!-- H12C8D4F4R4_12_5_0 -->
<g id="node45" class="node">
<title>H12C8D4F4R4_12_5_0</title>
<ellipse fill="none" stroke="black" cx="1893.04" cy="-162" rx="101.96" ry="18"/>
<text text-anchor="middle" x="1893.04" y="-156.57" font-family="Times New Roman,serif" font-size="14.00">H12C8D4F4R4_12_5_0</text>
</g>
<!-- H11C6D4F4R4_9_7_0&#45;&gt;H12C8D4F4R4_12_5_0 -->
<g id="edge39" class="edge">
<title>H11C6D4F4R4_9_7_0&#45;&gt;H12C8D4F4R4_12_5_0</title>
<path fill="none" stroke="black" d="M1846.05,-216.05C1853.33,-207.84 1862.23,-197.79 1870.32,-188.66"/>
<polygon fill="black" stroke="black" points="1872.73,-191.21 1876.74,-181.41 1867.49,-186.57 1872.73,-191.21"/>
</g>
<!-- H12C8D4F4R4_12_1_0 -->
<g id="node46" class="node">
<title>H12C8D4F4R4_12_1_0</title>
<ellipse fill="none" stroke="black" cx="543.04" cy="-306" rx="101.96" ry="18"/>
<text text-anchor="middle" x="543.04" y="-300.57" font-family="Times New Roman,serif" font-size="14.00">H12C8D4F4R4_12_1_0</text>
</g>
<!-- H9C6D3F3R3_11_2_0&#45;&gt;H12C8D4F4R4_12_1_0 -->
<g id="edge45" class="edge">
<title>H9C6D3F3R3_11_2_0&#45;&gt;H12C8D4F4R4_12_1_0</title>
<path fill="none" stroke="black" d="M543.04,-359.7C543.04,-352.41 543.04,-343.73 543.04,-335.54"/>
<polygon fill="black" stroke="black" points="546.54,-335.62 543.04,-325.62 539.54,-335.62 546.54,-335.62"/>
</g>
<!-- HC2_7_1_0 -->
<g id="node37" class="node">
<title>HC2_7_1_0</title>
<ellipse fill="none" stroke="black" cx="1360.04" cy="-378" rx="56.55" ry="18"/>
<text text-anchor="middle" x="1360.04" y="-372.57" font-family="Times New Roman,serif" font-size="14.00">HC2_7_1_0</text>
</g>
<!-- H3C2DFR_8_20_0 -->
<g id="node38" class="node">
<title>H3C2DFR_8_20_0</title>
<ellipse fill="none" stroke="black" cx="1373.04" cy="-306" rx="84" ry="18"/>
<text text-anchor="middle" x="1373.04" y="-300.57" font-family="Times New Roman,serif" font-size="14.00">H3C2DFR_8_20_0</text>
</g>
<!-- HC2_7_1_0&#45;&gt;H3C2DFR_8_20_0 -->
<g id="edge32" class="edge">
<title>HC2_7_1_0&#45;&gt;H3C2DFR_8_20_0</title>
<path fill="none" stroke="black" d="M1363.26,-359.7C1364.63,-352.32 1366.26,-343.52 1367.8,-335.25"/>
<polygon fill="black" stroke="black" points="1371.21,-336.06 1369.59,-325.59 1364.32,-334.79 1371.21,-336.06"/>
</g>
<!-- H23C14D8F8R8_20_9_0 -->
<g id="node44" class="node">
<title>H23C14D8F8R8_20_9_0</title>
<ellipse fill="none" stroke="black" cx="1198.04" cy="-234" rx="106.45" ry="18"/>
<text text-anchor="middle" x="1198.04" y="-228.57" font-family="Times New Roman,serif" font-size="14.00">H23C14D8F8R8_20_9_0</text>
</g>
<!-- H3C2DFR_8_20_0&#45;&gt;H23C14D8F8R8_20_9_0 -->
<g id="edge38" class="edge">
<title>H3C2DFR_8_20_0&#45;&gt;H23C14D8F8R8_20_9_0</title>
<path fill="none" stroke="black" d="M1334.64,-289.64C1309.41,-279.55 1276.14,-266.24 1248.75,-255.28"/>
<polygon fill="black" stroke="black" points="1250.17,-252.08 1239.59,-251.62 1247.57,-258.58 1250.17,-252.08"/>
</g>
<!-- H2DFR_7_21_0 -->
<g id="node39" class="node">
<title>H2DFR_7_21_0</title>
<ellipse fill="none" stroke="black" cx="1508.04" cy="-378" rx="73.02" ry="18"/>
<text text-anchor="middle" x="1508.04" y="-372.57" font-family="Times New Roman,serif" font-size="14.00">H2DFR_7_21_0</text>
</g>
<!-- H2DFR_7_21_0&#45;&gt;H3C2DFR_8_20_0 -->
<g id="edge33" class="edge">
<title>H2DFR_7_21_0&#45;&gt;H3C2DFR_8_20_0</title>
<path fill="none" stroke="black" d="M1477.75,-361.29C1458.99,-351.57 1434.67,-338.95 1414.18,-328.33"/>
<polygon fill="black" stroke="black" points="1416.01,-325.34 1405.52,-323.84 1412.79,-331.55 1416.01,-325.34"/>
</g>
<!-- H2DFR_8_17_0 -->
<g id="node40" class="node">
<title>H2DFR_8_17_0</title>
<ellipse fill="none" stroke="black" cx="125.04" cy="-450" rx="73.02" ry="18"/>
<text text-anchor="middle" x="125.04" y="-444.57" font-family="Times New Roman,serif" font-size="14.00">H2DFR_8_17_0</text>
</g>
<!-- H3C2DFR_9_15_0 -->
<g id="node41" class="node">
<title>H3C2DFR_9_15_0</title>
<ellipse fill="none" stroke="black" cx="273.04" cy="-378" rx="84" ry="18"/>
<text text-anchor="middle" x="273.04" y="-372.57" font-family="Times New Roman,serif" font-size="14.00">H3C2DFR_9_15_0</text>
</g>
<!-- H2DFR_8_17_0&#45;&gt;H3C2DFR_9_15_0 -->
<g id="edge35" class="edge">
<title>H2DFR_8_17_0&#45;&gt;H3C2DFR_9_15_0</title>
<path fill="none" stroke="black" d="M157.89,-433.46C178.94,-423.51 206.5,-410.47 229.38,-399.65"/>
<polygon fill="black" stroke="black" points="230.61,-402.94 238.15,-395.5 227.62,-396.61 230.61,-402.94"/>
</g>
<!-- H3C2DFR_9_15_0&#45;&gt;H12C8D4F4R4_12_1_0 -->
<g id="edge40" class="edge">
<title>H3C2DFR_9_15_0&#45;&gt;H12C8D4F4R4_12_1_0</title>
<path fill="none" stroke="black" d="M325.1,-363.5C368.23,-352.32 429.8,-336.36 476.5,-324.25"/>
<polygon fill="black" stroke="black" points="477.16,-327.7 485.96,-321.8 475.4,-320.92 477.16,-327.7"/>
</g>
<!-- HC2_8_8_0 -->
<g id="node42" class="node">
<title>HC2_8_8_0</title>
<ellipse fill="none" stroke="black" cx="2008.04" cy="-306" rx="56.55" ry="18"/>
<text text-anchor="middle" x="2008.04" y="-300.57" font-family="Times New Roman,serif" font-size="14.00">HC2_8_8_0</text>
</g>
<!-- HC2_8_8_0&#45;&gt;H11C6D4F4R4_9_7_0 -->
<g id="edge36" class="edge">
<title>HC2_8_8_0&#45;&gt;H11C6D4F4R4_9_7_0</title>
<path fill="none" stroke="black" d="M1973.5,-291.34C1947.33,-280.99 1911,-266.62 1881.57,-254.98"/>
<polygon fill="black" stroke="black" points="1883.07,-251.81 1872.48,-251.39 1880.49,-258.32 1883.07,-251.81"/>
</g>
<!-- HC2_8_1_0 -->
<g id="node43" class="node">
<title>HC2_8_1_0</title>
<ellipse fill="none" stroke="black" cx="273.04" cy="-450" rx="56.55" ry="18"/>
<text text-anchor="middle" x="273.04" y="-444.57" font-family="Times New Roman,serif" font-size="14.00">HC2_8_1_0</text>
</g>
<!-- HC2_8_1_0&#45;&gt;H3C2DFR_9_15_0 -->
<g id="edge37" class="edge">
<title>HC2_8_1_0&#45;&gt;H3C2DFR_9_15_0</title>
<path fill="none" stroke="black" d="M273.04,-431.7C273.04,-424.41 273.04,-415.73 273.04,-407.54"/>
<polygon fill="black" stroke="black" points="276.54,-407.62 273.04,-397.62 269.54,-407.62 276.54,-407.62"/>
</g>
<!-- H37C22D13F13R13_22_1_0 -->
<g id="node64" class="node">
<title>H37C22D13F13R13_22_1_0</title>
<ellipse fill="none" stroke="black" cx="1198.04" cy="-162" rx="119.93" ry="18"/>
<text text-anchor="middle" x="1198.04" y="-156.57" font-family="Times New Roman,serif" font-size="14.00">H37C22D13F13R13_22_1_0</text>
</g>
<!-- H23C14D8F8R8_20_9_0&#45;&gt;H37C22D13F13R13_22_1_0 -->
<g id="edge60" class="edge">
<title>H23C14D8F8R8_20_9_0&#45;&gt;H37C22D13F13R13_22_1_0</title>
<path fill="none" stroke="black" d="M1198.04,-215.7C1198.04,-208.41 1198.04,-199.73 1198.04,-191.54"/>
<polygon fill="black" stroke="black" points="1201.54,-191.62 1198.04,-181.62 1194.54,-191.62 1201.54,-191.62"/>
</g>
<!-- H15C10D5F5R5_25_3_0 -->
<g id="node57" class="node">
<title>H15C10D5F5R5_25_3_0</title>
<ellipse fill="none" stroke="black" cx="1893.04" cy="-90" rx="106.45" ry="18"/>
<text text-anchor="middle" x="1893.04" y="-84.58" font-family="Times New Roman,serif" font-size="14.00">H15C10D5F5R5_25_3_0</text>
</g>
<!-- H12C8D4F4R4_12_5_0&#45;&gt;H15C10D5F5R5_25_3_0 -->
<g id="edge51" class="edge">
<title>H12C8D4F4R4_12_5_0&#45;&gt;H15C10D5F5R5_25_3_0</title>
<path fill="none" stroke="black" d="M1893.04,-143.7C1893.04,-136.41 1893.04,-127.73 1893.04,-119.54"/>
<polygon fill="black" stroke="black" points="1896.54,-119.62 1893.04,-109.62 1889.54,-119.62 1896.54,-119.62"/>
</g>
<!-- H14C8D5F5R5_21_1_0 -->
<g id="node55" class="node">
<title>H14C8D5F5R5_21_1_0</title>
<ellipse fill="none" stroke="black" cx="919.04" cy="-234" rx="101.96" ry="18"/>
<text text-anchor="middle" x="919.04" y="-228.57" font-family="Times New Roman,serif" font-size="14.00">H14C8D5F5R5_21_1_0</text>
</g>
<!-- H12C8D4F4R4_12_1_0&#45;&gt;H14C8D5F5R5_21_1_0 -->
<g id="edge49" class="edge">
<title>H12C8D4F4R4_12_1_0&#45;&gt;H14C8D5F5R5_21_1_0</title>
<path fill="none" stroke="black" d="M611.13,-292.32C675.48,-280.34 772,-262.37 839.78,-249.76"/>
<polygon fill="black" stroke="black" points="840.15,-253.25 849.34,-247.98 838.87,-246.37 840.15,-253.25"/>
</g>
<!-- H15C10D5F5R5_12_14_0 -->
<g id="node51" class="node">
<title>H15C10D5F5R5_12_14_0</title>
<ellipse fill="none" stroke="black" cx="976.04" cy="-450" rx="110.94" ry="18"/>
<text text-anchor="middle" x="976.04" y="-444.57" font-family="Times New Roman,serif" font-size="14.00">H15C10D5F5R5_12_14_0</text>
</g>
<!-- H14C8D5F5R5_11_17_0&#45;&gt;H15C10D5F5R5_12_14_0 -->
<g id="edge47" class="edge">
<title>H14C8D5F5R5_11_17_0&#45;&gt;H15C10D5F5R5_12_14_0</title>
<path fill="none" stroke="black" d="M905.56,-504.05C917.24,-495.26 931.7,-484.38 944.47,-474.76"/>
<polygon fill="black" stroke="black" points="946.32,-477.75 952.21,-468.94 942.11,-472.16 946.32,-477.75"/>
</g>
<!-- HC2_10_11_0 -->
<g id="node48" class="node">
<title>HC2_10_11_0</title>
<ellipse fill="none" stroke="black" cx="1009.04" cy="-594" rx="65.53" ry="18"/>
<text text-anchor="middle" x="1009.04" y="-588.58" font-family="Times New Roman,serif" font-size="14.00">HC2_10_11_0</text>
</g>
<!-- HC2_10_11_0&#45;&gt;H14C8D5F5R5_11_17_0 -->
<g id="edge42" class="edge">
<title>HC2_10_11_0&#45;&gt;H14C8D5F5R5_11_17_0</title>
<path fill="none" stroke="black" d="M980.77,-577.29C963.75,-567.84 941.81,-555.65 923.04,-545.22"/>
<polygon fill="black" stroke="black" points="924.75,-542.16 914.31,-540.37 921.35,-548.28 924.75,-542.16"/>
</g>
<!-- HC2_10_1_0 -->
<g id="node49" class="node">
<title>HC2_10_1_0</title>
<ellipse fill="none" stroke="black" cx="613.04" cy="-450" rx="61.04" ry="18"/>
<text text-anchor="middle" x="613.04" y="-444.57" font-family="Times New Roman,serif" font-size="14.00">HC2_10_1_0</text>
</g>
<!-- HC2_10_1_0&#45;&gt;H9C6D3F3R3_11_2_0 -->
<g id="edge43" class="edge">
<title>HC2_10_1_0&#45;&gt;H9C6D3F3R3_11_2_0</title>
<path fill="none" stroke="black" d="M596.45,-432.41C587.95,-423.91 577.42,-413.37 567.96,-403.91"/>
<polygon fill="black" stroke="black" points="570.62,-401.62 561.07,-397.03 565.67,-406.57 570.62,-401.62"/>
</g>
<!-- HC2_11_1_0 -->
<g id="node50" class="node">
<title>HC2_11_1_0</title>
<ellipse fill="none" stroke="black" cx="1068.04" cy="-522" rx="61.04" ry="18"/>
<text text-anchor="middle" x="1068.04" y="-516.58" font-family="Times New Roman,serif" font-size="14.00">HC2_11_1_0</text>
</g>
<!-- HC2_11_1_0&#45;&gt;H15C10D5F5R5_12_14_0 -->
<g id="edge44" class="edge">
<title>HC2_11_1_0&#45;&gt;H15C10D5F5R5_12_14_0</title>
<path fill="none" stroke="black" d="M1046.71,-504.76C1035,-495.86 1020.27,-484.65 1007.3,-474.78"/>
<polygon fill="black" stroke="black" points="1009.51,-472.06 999.43,-468.79 1005.27,-477.64 1009.51,-472.06"/>
</g>
<!-- H17C10D6F6R6_13_12_0 -->
<g id="node56" class="node">
<title>H17C10D6F6R6_13_12_0</title>
<ellipse fill="none" stroke="black" cx="961.04" cy="-378" rx="110.94" ry="18"/>
<text text-anchor="middle" x="961.04" y="-372.57" font-family="Times New Roman,serif" font-size="14.00">H17C10D6F6R6_13_12_0</text>
</g>
<!-- H15C10D5F5R5_12_14_0&#45;&gt;H17C10D6F6R6_13_12_0 -->
<g id="edge50" class="edge">
<title>H15C10D5F5R5_12_14_0&#45;&gt;H17C10D6F6R6_13_12_0</title>
<path fill="none" stroke="black" d="M972.34,-431.7C970.76,-424.32 968.87,-415.52 967.1,-407.25"/>
<polygon fill="black" stroke="black" points="970.54,-406.63 965.03,-397.58 963.7,-408.1 970.54,-406.63"/>
</g>
<!-- HC2_11_7_0 -->
<g id="node52" class="node">
<title>HC2_11_7_0</title>
<ellipse fill="none" stroke="black" cx="2008.04" cy="-234" rx="61.04" ry="18"/>
<text text-anchor="middle" x="2008.04" y="-228.57" font-family="Times New Roman,serif" font-size="14.00">HC2_11_7_0</text>
</g>
<!-- HC2_11_7_0&#45;&gt;H12C8D4F4R4_12_5_0 -->
<g id="edge46" class="edge">
<title>HC2_11_7_0&#45;&gt;H12C8D4F4R4_12_5_0</title>
<path fill="none" stroke="black" d="M1982.24,-217.29C1966.85,-207.92 1947.05,-195.87 1930.02,-185.51"/>
<polygon fill="black" stroke="black" points="1932.02,-182.63 1921.66,-180.42 1928.38,-188.61 1932.02,-182.63"/>
</g>
<!-- HC2_12_2_0 -->
<g id="node53" class="node">
<title>HC2_12_2_0</title>
<ellipse fill="none" stroke="black" cx="1166.04" cy="-450" rx="61.04" ry="18"/>
<text text-anchor="middle" x="1166.04" y="-444.57" font-family="Times New Roman,serif" font-size="14.00">HC2_12_2_0</text>
</g>
<!-- H3C2DFR_13_2_0 -->
<g id="node54" class="node">
<title>H3C2DFR_13_2_0</title>
<ellipse fill="none" stroke="black" cx="1174.04" cy="-378" rx="84" ry="18"/>
<text text-anchor="middle" x="1174.04" y="-372.57" font-family="Times New Roman,serif" font-size="14.00">H3C2DFR_13_2_0</text>
</g>
<!-- HC2_12_2_0&#45;&gt;H3C2DFR_13_2_0 -->
<g id="edge48" class="edge">
<title>HC2_12_2_0&#45;&gt;H3C2DFR_13_2_0</title>
<path fill="none" stroke="black" d="M1168.02,-431.7C1168.85,-424.41 1169.85,-415.73 1170.78,-407.54"/>
<polygon fill="black" stroke="black" points="1174.26,-407.94 1171.92,-397.61 1167.3,-407.15 1174.26,-407.94"/>
</g>
<!-- H20C12D7F7R7_16_11_0 -->
<g id="node60" class="node">
<title>H20C12D7F7R7_16_11_0</title>
<ellipse fill="none" stroke="black" cx="1160.04" cy="-306" rx="110.94" ry="18"/>
<text text-anchor="middle" x="1160.04" y="-300.57" font-family="Times New Roman,serif" font-size="14.00">H20C12D7F7R7_16_11_0</text>
</g>
<!-- H3C2DFR_13_2_0&#45;&gt;H20C12D7F7R7_16_11_0 -->
<g id="edge55" class="edge">
<title>H3C2DFR_13_2_0&#45;&gt;H20C12D7F7R7_16_11_0</title>
<path fill="none" stroke="black" d="M1170.58,-359.7C1169.11,-352.32 1167.35,-343.52 1165.69,-335.25"/>
<polygon fill="black" stroke="black" points="1169.15,-334.71 1163.76,-325.59 1162.29,-336.08 1169.15,-334.71"/>
</g>
<!-- H14C8D5F5R5_21_1_0&#45;&gt;H37C22D13F13R13_22_1_0 -->
<g id="edge62" class="edge">
<title>H14C8D5F5R5_21_1_0&#45;&gt;H37C22D13F13R13_22_1_0</title>
<path fill="none" stroke="black" d="M976.18,-218.67C1019.86,-207.7 1080.34,-192.53 1127.12,-180.79"/>
<polygon fill="black" stroke="black" points="1127.78,-184.24 1136.63,-178.41 1126.08,-177.45 1127.78,-184.24"/>
</g>
<!-- H17C10D6F6R6_13_12_0&#45;&gt;H20C12D7F7R7_16_11_0 -->
<g id="edge54" class="edge">
<title>H17C10D6F6R6_13_12_0&#45;&gt;H20C12D7F7R7_16_11_0</title>
<path fill="none" stroke="black" d="M1006.2,-361.12C1035.33,-350.87 1073.43,-337.47 1104.43,-326.56"/>
<polygon fill="black" stroke="black" points="1105.37,-329.94 1113.64,-323.32 1103.04,-323.34 1105.37,-329.94"/>
</g>
<!-- H54C32D19F19R19_47_2_0 -->
<g id="node68" class="node">
<title>H54C32D19F19R19_47_2_0</title>
<ellipse fill="none" stroke="black" cx="1625.04" cy="-18" rx="119.93" ry="18"/>
<text text-anchor="middle" x="1625.04" y="-12.57" font-family="Times New Roman,serif" font-size="14.00">H54C32D19F19R19_47_2_0</text>
</g>
<!-- H15C10D5F5R5_25_3_0&#45;&gt;H54C32D19F19R19_47_2_0 -->
<g id="edge66" class="edge">
<title>H15C10D5F5R5_25_3_0&#45;&gt;H54C32D19F19R19_47_2_0</title>
<path fill="none" stroke="black" d="M1836.86,-74.33C1795.26,-63.46 1738.35,-48.59 1693.99,-37.01"/>
<polygon fill="black" stroke="black" points="1695.03,-33.66 1684.47,-34.52 1693.26,-40.43 1695.03,-33.66"/>
</g>
<!-- H2DFR_12_11_0 -->
<g id="node58" class="node">
<title>H2DFR_12_11_0</title>
<ellipse fill="none" stroke="black" cx="1323.04" cy="-450" rx="77.51" ry="18"/>
<text text-anchor="middle" x="1323.04" y="-444.57" font-family="Times New Roman,serif" font-size="14.00">H2DFR_12_11_0</text>
</g>
<!-- H2DFR_12_11_0&#45;&gt;H3C2DFR_13_2_0 -->
<g id="edge52" class="edge">
<title>H2DFR_12_11_0&#45;&gt;H3C2DFR_13_2_0</title>
<path fill="none" stroke="black" d="M1289.61,-433.29C1268.47,-423.36 1240.93,-410.42 1218.04,-399.67"/>
<polygon fill="black" stroke="black" points="1219.8,-396.63 1209.26,-395.54 1216.82,-402.96 1219.8,-396.63"/>
</g>
<!-- H2DFR_12_13_0 -->
<g id="node59" class="node">
<title>H2DFR_12_13_0</title>
<ellipse fill="none" stroke="black" cx="770.04" cy="-450" rx="77.51" ry="18"/>
<text text-anchor="middle" x="770.04" y="-444.57" font-family="Times New Roman,serif" font-size="14.00">H2DFR_12_13_0</text>
</g>
<!-- H2DFR_12_13_0&#45;&gt;H17C10D6F6R6_13_12_0 -->
<g id="edge53" class="edge">
<title>H2DFR_12_13_0&#45;&gt;H17C10D6F6R6_13_12_0</title>
<path fill="none" stroke="black" d="M810.08,-434.33C838.17,-424.03 876.04,-410.15 906.83,-398.87"/>
<polygon fill="black" stroke="black" points="907.79,-402.24 915.97,-395.52 905.38,-395.67 907.79,-402.24"/>
</g>
<!-- H20C12D7F7R7_16_11_0&#45;&gt;H23C14D8F8R8_20_9_0 -->
<g id="edge56" class="edge">
<title>H20C12D7F7R7_16_11_0&#45;&gt;H23C14D8F8R8_20_9_0</title>
<path fill="none" stroke="black" d="M1169.44,-287.7C1173.62,-279.98 1178.66,-270.71 1183.33,-262.11"/>
<polygon fill="black" stroke="black" points="1186.34,-263.89 1188.04,-253.43 1180.19,-260.55 1186.34,-263.89"/>
</g>
<!-- H2DFR_18_7_0 -->
<g id="node61" class="node">
<title>H2DFR_18_7_0</title>
<ellipse fill="none" stroke="black" cx="2160.04" cy="-234" rx="73.02" ry="18"/>
<text text-anchor="middle" x="2160.04" y="-228.57" font-family="Times New Roman,serif" font-size="14.00">H2DFR_18_7_0</text>
</g>
<!-- H3C2DFR_19_3_0 -->
<g id="node62" class="node">
<title>H3C2DFR_19_3_0</title>
<ellipse fill="none" stroke="black" cx="2160.04" cy="-162" rx="84" ry="18"/>
<text text-anchor="middle" x="2160.04" y="-156.57" font-family="Times New Roman,serif" font-size="14.00">H3C2DFR_19_3_0</text>
</g>
<!-- H2DFR_18_7_0&#45;&gt;H3C2DFR_19_3_0 -->
<g id="edge57" class="edge">
<title>H2DFR_18_7_0&#45;&gt;H3C2DFR_19_3_0</title>
<path fill="none" stroke="black" d="M2160.04,-215.7C2160.04,-208.41 2160.04,-199.73 2160.04,-191.54"/>
<polygon fill="black" stroke="black" points="2163.54,-191.62 2160.04,-181.62 2156.54,-191.62 2163.54,-191.62"/>
</g>
<!-- H3C2DFR_19_3_0&#45;&gt;H15C10D5F5R5_25_3_0 -->
<g id="edge59" class="edge">
<title>H3C2DFR_19_3_0&#45;&gt;H15C10D5F5R5_25_3_0</title>
<path fill="none" stroke="black" d="M2108.25,-147.42C2065.94,-136.33 2005.84,-120.57 1959.9,-108.53"/>
<polygon fill="black" stroke="black" points="1960.87,-105.16 1950.31,-106.01 1959.09,-111.93 1960.87,-105.16"/>
</g>
<!-- HC2_18_3_0 -->
<g id="node63" class="node">
<title>HC2_18_3_0</title>
<ellipse fill="none" stroke="black" cx="2312.04" cy="-234" rx="61.04" ry="18"/>
<text text-anchor="middle" x="2312.04" y="-228.57" font-family="Times New Roman,serif" font-size="14.00">HC2_18_3_0</text>
</g>
<!-- HC2_18_3_0&#45;&gt;H3C2DFR_19_3_0 -->
<g id="edge58" class="edge">
<title>HC2_18_3_0&#45;&gt;H3C2DFR_19_3_0</title>
<path fill="none" stroke="black" d="M2280.18,-218.33C2258.34,-208.27 2229.06,-194.78 2204.87,-183.65"/>
<polygon fill="black" stroke="black" points="2206.43,-180.51 2195.89,-179.51 2203.5,-186.87 2206.43,-180.51"/>
</g>
<!-- H39C22D14F14R14_23_1_0 -->
<g id="node66" class="node">
<title>H39C22D14F14R14_23_1_0</title>
<ellipse fill="none" stroke="black" cx="1456.04" cy="-90" rx="119.93" ry="18"/>
<text text-anchor="middle" x="1456.04" y="-84.58" font-family="Times New Roman,serif" font-size="14.00">H39C22D14F14R14_23_1_0</text>
</g>
<!-- H37C22D13F13R13_22_1_0&#45;&gt;H39C22D14F14R14_23_1_0 -->
<g id="edge63" class="edge">
<title>H37C22D13F13R13_22_1_0&#45;&gt;H39C22D14F14R14_23_1_0</title>
<path fill="none" stroke="black" d="M1254.34,-145.72C1293.95,-134.98 1347.13,-120.55 1388.94,-109.21"/>
<polygon fill="black" stroke="black" points="1389.67,-112.64 1398.4,-106.64 1387.84,-105.88 1389.67,-112.64"/>
</g>
<!-- H2DFR_20_7_0 -->
<g id="node65" class="node">
<title>H2DFR_20_7_0</title>
<ellipse fill="none" stroke="black" cx="919.04" cy="-306" rx="73.02" ry="18"/>
<text text-anchor="middle" x="919.04" y="-300.57" font-family="Times New Roman,serif" font-size="14.00">H2DFR_20_7_0</text>
</g>
<!-- H2DFR_20_7_0&#45;&gt;H14C8D5F5R5_21_1_0 -->
<g id="edge61" class="edge">
<title>H2DFR_20_7_0&#45;&gt;H14C8D5F5R5_21_1_0</title>
<path fill="none" stroke="black" d="M919.04,-287.7C919.04,-280.41 919.04,-271.73 919.04,-263.54"/>
<polygon fill="black" stroke="black" points="922.54,-263.62 919.04,-253.62 915.54,-263.62 922.54,-263.62"/>
</g>
<!-- H39C22D14F14R14_23_1_0&#45;&gt;H54C32D19F19R19_47_2_0 -->
<g id="edge65" class="edge">
<title>H39C22D14F14R14_23_1_0&#45;&gt;H54C32D19F19R19_47_2_0</title>
<path fill="none" stroke="black" d="M1495.67,-72.59C1519.31,-62.79 1549.56,-50.26 1574.87,-39.78"/>
<polygon fill="black" stroke="black" points="1576.08,-43.07 1583.98,-36.01 1573.4,-36.6 1576.08,-43.07"/>
</g>
<!-- H2DFR_22_7_0 -->
<g id="node67" class="node">
<title>H2DFR_22_7_0</title>
<ellipse fill="none" stroke="black" cx="1456.04" cy="-162" rx="73.02" ry="18"/>
<text text-anchor="middle" x="1456.04" y="-156.57" font-family="Times New Roman,serif" font-size="14.00">H2DFR_22_7_0</text>
</g>
<!-- H2DFR_22_7_0&#45;&gt;H39C22D14F14R14_23_1_0 -->
<g id="edge64" class="edge">
<title>H2DFR_22_7_0&#45;&gt;H39C22D14F14R14_23_1_0</title>
<path fill="none" stroke="black" d="M1456.04,-143.7C1456.04,-136.41 1456.04,-127.73 1456.04,-119.54"/>
<polygon fill="black" stroke="black" points="1459.54,-119.62 1456.04,-109.62 1452.54,-119.62 1459.54,-119.62"/>
</g>
</g>
</svg>
